<?xml version="1.0" encoding="UTF-8"?>
<svg version="1.1" xmlns="http://www.w3.org/2000/svg" width="4200" height="4200">
<path d="M0 0 C1386 0 2772 0 4200 0 C4200 1386 4200 2772 4200 4200 C2814 4200 1428 4200 0 4200 C0 2814 0 1428 0 0 Z " fill="transparent" transform="translate(0,0)"/>
<path d="M0 0 C0.33 0 0.66 0 1 0 C1.02870178 0.63843338 1.05740356 1.27686676 1.0869751 1.93464661 C4.03938086 67.24634761 8.36509164 132.42060174 19 197 C19.22961729 198.42760976 19.45843544 199.85534824 19.68652344 201.28320312 C24.81403881 233.37757735 30.90584056 265.28033729 38 297 C38.27360352 298.23137695 38.54720703 299.46275391 38.82910156 300.73144531 C58.34767361 387.93787262 86.66861887 473.23531468 167.41796875 652.1484375 C169.32913476 655.72022258 171.19864611 659.31131067 173.05078125 662.9140625 C179.84630335 676.1275777 186.89276537 689.15529962 194.29785156 702.03710938 C196.0568975 705.09904017 197.80607868 708.16647359 199.5546875 711.234375 C212.94961588 734.6692537 226.87704508 757.73021879 241.81591797 780.21636963 C243.13422147 782.2021832 244.45002909 784.18963777 245.765625 786.17724609 C261.65845983 810.18007873 277.79243632 833.91387151 295 857 C295.65524658 857.88123535 295.65524658 857.88123535 296.32373047 858.78027344 C301.30262021 865.47400187 306.36277056 872.10395402 311.4609375 878.70703125 C313.16012959 880.90787089 314.85245971 883.11371741 316.5390625 885.32421875 C321.10241142 891.29873085 325.7413604 897.19720387 330.52734375 902.99609375 C332.93491037 905.92092586 335.32028781 908.86255703 337.70239258 911.80810547 C343.59507465 919.08988133 349.57416046 926.28760264 355.65283203 933.41455078 C357.03432953 935.04040158 358.40692518 936.67339707 359.77734375 938.30859375 C364.92149918 944.43889242 370.17779269 950.42171623 375.59765625 956.3125 C378.01454866 959.01627557 380.29486665 961.79537086 382.5625 964.625 C386.02354747 968.91621053 389.68032938 972.8285141 393.6640625 976.63671875 C396.29201564 979.29543389 398.72122206 982.08722447 401.17041016 984.90991211 C404.00536659 988.14851126 406.9313664 991.29778488 409.875 994.4375 C410.50776855 995.11345215 411.14053711 995.7894043 411.79248047 996.48583984 C417.49120737 1002.53440333 423.35033441 1008.41500136 429.27685547 1014.23999023 C432.1691648 1017.09601612 434.91945934 1019.90128088 437.4921875 1023.0546875 C439.46621978 1025.37309924 441.27017231 1027.17166609 443.5625 1029.125 C447.11779652 1032.16000923 450.45683149 1035.37310236 453.75 1038.6875 C454.25700439 1039.19772705 454.76400879 1039.7079541 455.28637695 1040.23364258 C457.38793188 1042.35364664 459.48486887 1044.47819124 461.58203125 1046.60253906 C467.03537246 1052.12015663 472.48411449 1057.57322166 478.390625 1062.61328125 C480.36418611 1064.31380114 482.19102387 1066.12641758 484 1068 C487.17037325 1071.21354954 490.45567835 1074.21499834 493.875 1077.16015625 C496.23485492 1079.20333946 498.55664602 1081.28485899 500.875 1083.375 C501.71933594 1084.13554688 502.56367188 1084.89609375 503.43359375 1085.6796875 C505.11697748 1087.20165087 506.79679835 1088.72756626 508.47265625 1090.2578125 C513.50995742 1094.84008012 518.66587227 1099.21138828 523.9609375 1103.4921875 C527.47057151 1106.38831222 530.89035382 1109.37662324 534.3125 1112.375 C539.70235341 1117.08710379 545.20681467 1121.59307087 550.86816406 1125.97387695 C554.85705047 1129.07027537 558.72980378 1132.2752725 562.5625 1135.5625 C567.71954272 1139.97407689 573.01621041 1144.16517096 578.421875 1148.26953125 C581.07576969 1150.28555738 583.70609244 1152.32942282 586.328125 1154.38671875 C593.65499291 1160.13403423 600.99574455 1165.81911756 608.61230469 1171.1784668 C612.71239442 1174.06568138 616.75089896 1177.02696171 620.77490234 1180.01928711 C630.19078044 1187.01783241 639.76783385 1193.7276476 649.48730469 1200.29638672 C652.12573569 1202.08524909 654.75512189 1203.88680799 657.3828125 1205.69140625 C669.46862011 1213.98479286 681.65726789 1222.09408213 694 1230 C694.74717285 1230.47969238 695.4943457 1230.95938477 696.26416016 1231.45361328 C728.38064625 1252.0349575 761.30205055 1271.1290102 795 1289 C796.25635254 1289.66757324 796.25635254 1289.66757324 797.53808594 1290.34863281 C802.14207353 1292.79253686 806.75553159 1295.2176949 811.37646484 1297.62939453 C813.27367525 1298.62054837 815.16968342 1299.6140046 817.06494141 1300.60888672 C832.56036472 1308.74082982 848.13352604 1316.61747114 864 1324 C865.26450991 1324.59060567 866.52899439 1325.1812658 867.79345703 1325.77197266 C901.08960643 1341.30366442 934.9014277 1355.42947764 969.21630859 1368.54882812 C972.43845082 1369.78187834 975.65242834 1371.03467371 978.86328125 1372.296875 C991.90027142 1377.39679899 1005.15511724 1381.81014004 1018.45167542 1386.17468262 C1023.53534762 1387.84374097 1028.60964458 1389.5397376 1033.68212891 1391.24243164 C1052.05054586 1397.4005516 1070.47451775 1403.06687489 1089.15380859 1408.21240234 C1091.55983794 1408.87819842 1093.96253876 1409.55373676 1096.36328125 1410.23828125 C1144.36222673 1423.88641321 1193.21769027 1434.86353987 1242.38095093 1443.36877441 C1245.75179992 1443.95670956 1249.11980462 1444.55850569 1252.48730469 1445.1652832 C1270.49864952 1448.38219278 1288.54557007 1450.97204843 1306.69302368 1453.27717209 C1308.97750711 1453.56758588 1311.26171534 1453.86009676 1313.54589844 1454.15286255 C1338.54668604 1457.34949568 1363.54925089 1460.02664383 1388.69293213 1461.83325195 C1390.92243778 1461.99439403 1393.15144161 1462.16117106 1395.38037109 1462.33007812 C1409.98616938 1463.43268773 1424.58526332 1464.23772788 1439.22729492 1464.65893555 C1444.88559059 1464.83007908 1450.39693467 1465.18316758 1456 1466 C1456 1466.33 1456 1466.66 1456 1467 C1454.8567627 1467.04487549 1453.71352539 1467.08975098 1452.53564453 1467.13598633 C1389.33555224 1469.64819072 1326.49596766 1475.06806821 1264 1485 C1263.35857056 1485.10121155 1262.71714111 1485.2024231 1262.05627441 1485.30670166 C1224.79674467 1491.18831262 1187.94331013 1498.532181 1151.25431824 1507.29249573 C1145.63896034 1508.62828714 1140.01000085 1509.88894636 1134.37109375 1511.12109375 C1128.1786202 1512.47988214 1122.07363596 1513.98591119 1116 1515.8125 C1109.21823668 1517.80297336 1102.42168541 1519.70368062 1095.58813477 1521.50878906 C1081.26708138 1525.29585751 1067.10990239 1529.49216105 1053 1534 C1052.21314819 1534.2513269 1051.42629639 1534.50265381 1050.61560059 1534.76159668 C1029.54326678 1541.50058773 1008.47709242 1548.24592991 987.74365234 1555.97753906 C984.96422658 1557.01333147 982.17981084 1558.03475314 979.39453125 1559.0546875 C949.53013804 1570.05320187 920.17441437 1582.30004443 891 1595 C889.50871582 1595.64606201 889.50871582 1595.64606201 887.98730469 1596.30517578 C879.71162344 1599.89397755 871.55658707 1603.64270569 863.51342773 1607.72705078 C857.34717318 1610.85400334 851.11432404 1613.83453309 844.875 1616.8125 C827.61258328 1625.0762295 810.54600147 1633.5812584 793.78515625 1642.82421875 C788.56870093 1645.69899708 783.32047282 1648.51164501 778.06689453 1651.31787109 C767.80859415 1656.80349018 757.66069817 1662.40085115 747.69042969 1668.39257812 C744.28413716 1670.42769881 740.86461244 1672.4399608 737.4453125 1674.453125 C724.17904802 1682.27194163 710.96940601 1690.11232943 698.12451172 1698.61181641 C694.71409938 1700.84022419 691.26409223 1703.0055286 687.8190918 1705.17993164 C678.48104664 1711.07801913 669.27377995 1717.11169979 660.22607422 1723.4453125 C657.66790802 1725.23193263 655.10179665 1727.0068262 652.53515625 1728.78125 C640.58795445 1737.04985841 628.73173595 1745.42859732 617 1754 C615.84854492 1754.83845459 615.84854492 1754.83845459 614.67382812 1755.69384766 C603.64271382 1763.73151455 592.78052646 1771.9589987 582.04882812 1780.39208984 C580.15634524 1781.87730103 578.25901287 1783.35598959 576.359375 1784.83203125 C567.74296313 1791.54085377 559.31319881 1798.4656903 550.90234375 1805.4296875 C548.38369036 1807.5087402 545.84811001 1809.56668129 543.3125 1811.625 C537.38866285 1816.46608142 531.59725854 1821.45740676 525.80273438 1826.45166016 C524.02514087 1827.97840691 522.24047985 1829.49641708 520.453125 1831.01171875 C513.44505872 1836.96231182 506.61450065 1843.06272294 499.88671875 1849.328125 C497.59906291 1851.44552229 495.29343963 1853.52230485 492.9375 1855.5625 C485.64000505 1861.8859649 478.49204144 1868.39562419 471.7361908 1875.29624939 C470.0529896 1876.94800049 468.31246034 1878.46987938 466.51391602 1879.99438477 C460.93435042 1884.85164815 455.74940347 1890.10628007 450.52734375 1895.33984375 C449.43468011 1896.43183191 448.34186822 1897.52367175 447.24891663 1898.6153717 C444.97055162 1900.89227122 442.69398217 1903.17094653 440.41870117 1905.45092773 C437.52190105 1908.35342441 434.6206332 1911.25140706 431.71799374 1914.14806271 C429.46406535 1916.3983543 427.21255274 1918.65105092 424.96173286 1920.90445137 C423.89369362 1921.97315128 422.82492892 1923.04112674 421.75538445 1924.10832024 C415.95469172 1929.89905395 410.33115313 1935.77158328 405 1942 C403.7215678 1943.39264627 402.43491611 1944.77789792 401.1328125 1946.1484375 C400.47917725 1946.83881104 399.82554199 1947.52918457 399.15209961 1948.24047852 C398.48315674 1948.94487061 397.81421387 1949.6492627 397.125 1950.375 C391.32745008 1956.50798387 385.58691181 1962.67364398 380 1969 C379.44828125 1969.62261719 378.8965625 1970.24523438 378.328125 1970.88671875 C373.55644992 1976.30597831 368.87175897 1981.8009368 364.1796875 1987.2890625 C362.11029302 1989.7082138 360.03222693 1992.11938733 357.9453125 1994.5234375 C352.48211087 2000.82992244 347.189215 2007.22416023 342.07617188 2013.81811523 C338.96093269 2017.8214217 335.73932731 2021.7121096 332.4375 2025.5625 C327.48097248 2031.35417086 322.81368423 2037.33018629 318.21191406 2043.40576172 C316.26201998 2045.97079161 314.28453517 2048.51447437 312.3125 2051.0625 C300.93335461 2065.83850736 289.82681749 2080.81507121 279 2096 C278.25508301 2097.03906494 278.25508301 2097.03906494 277.49511719 2098.09912109 C259.37038049 2123.42546695 242.01907953 2149.47231691 225.796875 2176.05664062 C224.1699857 2178.72155603 222.53413698 2181.3807859 220.89561462 2184.03855896 C211.71179203 2198.94747277 202.91794666 2214.0266343 194.46044922 2229.36279297 C192.86015171 2232.25253113 191.23216938 2235.12535601 189.59643555 2237.99511719 C178.60735764 2257.310984 168.32844895 2277.01975517 158.50927734 2296.95214844 C157.40710838 2299.17788079 156.29852822 2301.39959541 155.18212891 2303.61816406 C150.07622695 2313.76848861 145.11657226 2323.98282593 140.25 2334.25 C139.85881989 2335.07526184 139.46763977 2335.90052368 139.06460571 2336.75079346 C132.00024305 2351.68228319 125.30136914 2366.72829774 119 2382 C118.60938385 2382.9449231 118.60938385 2382.9449231 118.21087646 2383.90893555 C98.97744458 2430.45179505 80.6685577 2477.67746392 66.71875 2526.10546875 C65.50097683 2530.32945179 64.20412804 2534.51375993 62.82543945 2538.6875 C58.14665493 2552.88204183 54.58828114 2567.41833302 50.84909058 2581.8817749 C49.83704405 2585.79443383 48.81524265 2589.70389121 47.76757812 2593.60717773 C44.43956155 2606.03014822 41.47907704 2618.5227905 38.625 2631.0625 C38.26699814 2632.63229111 38.26699814 2632.63229111 37.90176392 2634.23379517 C31.22115147 2663.56754204 25.30025975 2692.84459474 20.69091797 2722.57666016 C20.04462143 2726.7355314 19.3707319 2730.88936293 18.69140625 2735.04296875 C15.23952012 2756.29539201 12.43157944 2777.60792958 10 2799 C9.84177765 2800.37883362 9.84177765 2800.37883362 9.68035889 2801.78552246 C4.85127445 2844.0727889 2.92381508 2886.50273362 1 2929 C0.67 2929 0.34 2929 0 2929 C-1.17567027 2923.17537218 -1.37004195 2917.34104345 -1.6484375 2911.421875 C-1.76578032 2909.06249153 -1.88330077 2906.70311689 -2.00097656 2904.34375 C-2.09191589 2902.4875 -2.09191589 2902.4875 -2.18469238 2900.59375 C-2.75570001 2889.06078775 -3.37740526 2877.53027743 -4 2866 C-4.05458374 2864.98897217 -4.10916748 2863.97794434 -4.16540527 2862.9362793 C-7.19299636 2807.60411111 -15.1878165 2752.50960724 -25 2698 C-25.22768066 2696.73220703 -25.45536133 2695.46441406 -25.68994141 2694.15820312 C-29.87604074 2671.12403219 -35.12838881 2648.34094986 -40.41290283 2625.53912354 C-41.13737485 2622.40587054 -41.85538276 2619.27116388 -42.57234192 2616.13618469 C-43.33632381 2612.79829802 -44.10578668 2609.46168502 -44.875 2606.125 C-45.26739868 2604.40978149 -45.26739868 2604.40978149 -45.66772461 2602.65991211 C-47.52021322 2594.69260846 -49.71470411 2586.85276109 -52 2579 C-53.15477465 2574.91916521 -54.29556982 2570.83444539 -55.4375 2566.75 C-55.74187988 2565.66501221 -56.04625977 2564.58002441 -56.35986328 2563.4621582 C-57.67465532 2558.77018926 -58.98619694 2554.07813538 -60.24609375 2549.37109375 C-63.81116495 2536.10264185 -68.06145214 2523.06039768 -72.34246826 2510.00836182 C-73.01096218 2507.96651718 -73.67603936 2505.92358613 -74.34033203 2503.88037109 C-85.64690537 2469.13702341 -98.00883074 2434.75771187 -112 2401 C-112.26643311 2400.35625427 -112.53286621 2399.71250854 -112.80737305 2399.04925537 C-126.41531027 2366.20489878 -141.24233919 2333.98380481 -156.96429443 2302.10070801 C-157.98345209 2300.03356391 -159.00086738 2297.9655694 -160.01806641 2295.89746094 C-167.50128145 2280.69773508 -175.17874957 2265.63340872 -183.42822266 2250.83154297 C-185.12671008 2247.77173291 -186.80438288 2244.7010406 -188.48046875 2241.62890625 C-196.33390175 2227.28899149 -204.58421699 2213.26069411 -213.1328125 2199.328125 C-216.21855863 2194.29763083 -219.22930221 2189.23116876 -222.1875 2184.125 C-238.88446105 2155.52064441 -257.79793995 2127.96933264 -277 2101 C-277.85970867 2099.78409002 -278.71910111 2098.56795636 -279.578125 2097.3515625 C-288.9984072 2084.04813923 -298.66241479 2070.90866678 -308.65234375 2058.02734375 C-310.64475954 2055.45808878 -312.61927418 2052.87617232 -314.58935547 2050.28979492 C-320.41533379 2042.65787961 -326.47249464 2035.22165551 -332.54589844 2027.78613281 C-334.46244706 2025.43195724 -336.3582392 2023.06162212 -338.25 2020.6875 C-345.80074256 2011.23334108 -353.54921071 2001.97115185 -361.44726562 1992.80712891 C-362.98645982 1991.01575856 -364.51787119 1989.21804113 -366.046875 1987.41796875 C-371.7532693 1980.70797894 -377.57007354 1974.13057365 -383.55078125 1967.6640625 C-385.56873779 1965.46909223 -387.54803445 1963.2533379 -389.5 1961 C-393.7171788 1956.14476105 -398.07244505 1951.41670231 -402.43603516 1946.69335938 C-403.49935172 1945.54206939 -404.56148362 1944.38968437 -405.62255859 1943.23632812 C-412.83249439 1935.40466445 -420.15809924 1927.72516862 -427.76269531 1920.27416992 C-430.79222401 1917.2886507 -433.68128621 1914.25438529 -436.44921875 1911.0234375 C-440.00410721 1906.9071727 -443.87237623 1903.23780311 -447.875 1899.5625 C-454.78545231 1893.14701543 -461.50762579 1886.57527877 -468.11474609 1879.84790039 C-472.02016234 1875.8929572 -476.03670287 1872.15717833 -480.24780273 1868.52954102 C-482.26093119 1866.77222602 -484.14419925 1864.92207934 -486 1863 C-489.17502757 1859.78173275 -492.46478889 1856.77593747 -495.890625 1853.828125 C-498.16653112 1851.85567303 -500.39588207 1849.83764635 -502.625 1847.8125 C-507.17916145 1843.70332532 -511.81543262 1839.69999189 -516.48168945 1835.71948242 C-519.54482481 1833.10595151 -522.59955313 1830.48412467 -525.6328125 1827.8359375 C-534.33042559 1820.24276482 -543.17203096 1812.84642862 -552.11376953 1805.54248047 C-553.75497458 1804.20037155 -555.39156927 1802.85262869 -557.02734375 1801.50390625 C-563.61554749 1796.07661947 -570.3055273 1790.787339 -577.03417969 1785.53613281 C-579.10117138 1783.92094259 -581.16390783 1782.30041162 -583.2265625 1780.6796875 C-593.99602196 1772.23711756 -604.93449881 1764.04993393 -616 1756 C-616.76344727 1755.44425293 -617.52689453 1754.88850586 -618.31347656 1754.31591797 C-620.5821782 1752.66643729 -622.85293731 1751.0198475 -625.125 1749.375 C-626.08889648 1748.67685181 -626.08889648 1748.67685181 -627.07226562 1747.96459961 C-629.37648449 1746.30260011 -631.68716959 1744.65000199 -634 1743 C-634.5830188 1742.58379395 -635.1660376 1742.16758789 -635.76672363 1741.73876953 C-646.55242395 1734.04998011 -657.4670528 1726.57888452 -668.5 1719.25 C-669.66438599 1718.47529358 -669.66438599 1718.47529358 -670.85229492 1717.68493652 C-690.94859902 1704.3185623 -711.18631462 1691.22911323 -732 1679 C-732.94198242 1678.44602539 -733.88396484 1677.89205078 -734.85449219 1677.32128906 C-741.88901186 1673.18997764 -748.94063467 1669.08868218 -756 1665 C-756.88800293 1664.484375 -757.77600586 1663.96875 -758.69091797 1663.4375 C-786.11488898 1647.5329429 -814.17824165 1631.9882 -843.0256958 1618.77796936 C-847.55275118 1616.69803184 -852.01035075 1614.50731746 -856.453125 1612.25390625 C-864.69711322 1608.10623586 -873.03942035 1604.19939417 -881.4375 1600.375 C-882.56125031 1599.86259766 -882.56125031 1599.86259766 -883.70770264 1599.33984375 C-936.5017896 1575.30233963 -990.79989456 1554.79625557 -1046 1537 C-1046.74860291 1536.75828064 -1047.49720581 1536.51656128 -1048.26849365 1536.26751709 C-1093.20058616 1521.78831018 -1138.87344748 1509.99362613 -1185 1500 C-1186.32387726 1499.71252899 -1186.32387726 1499.71252899 -1187.67449951 1499.41925049 C-1211.02747862 1494.3597015 -1234.45510274 1490.02545362 -1258.05767822 1486.30670166 C-1259.87396372 1486.01990172 -1261.68968973 1485.72956491 -1263.50537109 1485.43896484 C-1269.86609535 1484.42128711 -1276.23177713 1483.44597565 -1282.60449219 1482.50634766 C-1284.92923939 1482.15967483 -1287.25277101 1481.80477851 -1289.57519531 1481.44287109 C-1337.7345936 1473.95182427 -1386.58637283 1470.49526359 -1435.23413086 1468.13470459 C-1439.06459798 1467.94815148 -1442.89474267 1467.75532499 -1446.72491455 1467.56282043 C-1450.48321817 1467.37403923 -1454.24160694 1467.18699115 -1458 1467 C-1458 1466.67 -1458 1466.34 -1458 1466 C-1451.31735572 1465.02553143 -1444.71455882 1464.76683364 -1437.96875 1464.578125 C-1423.14358965 1464.09052546 -1408.37155703 1463.07067408 -1393.58603668 1461.9132576 C-1391.45992393 1461.74686356 -1389.33369618 1461.581995 -1387.2074585 1461.41720581 C-1363.90893893 1459.60415599 -1340.69267276 1457.38567932 -1317.52069092 1454.3314209 C-1314.93766364 1453.991804 -1312.3539223 1453.65808085 -1309.77001953 1453.32519531 C-1257.74979651 1446.59047299 -1206.03868892 1437.11251247 -1155 1425 C-1154.02359558 1424.76950958 -1154.02359558 1424.76950958 -1153.02746582 1424.53436279 C-1065.08243933 1403.75502103 -979.77529735 1374.08529043 -897 1338 C-894.79459561 1337.04660617 -892.58863686 1336.09452198 -890.38208008 1335.14379883 C-875.62260978 1328.71228863 -861.14785649 1321.69111181 -846.68603516 1314.62182617 C-843.77003979 1313.19728994 -840.85187078 1311.77727684 -837.93359375 1310.35742188 C-826.52945645 1304.79485402 -815.23381585 1299.0647251 -804.04058838 1293.08901978 C-802.18592034 1292.09922184 -800.32823171 1291.11508904 -798.47021484 1290.1315918 C-784.71816642 1282.84879 -771.165906 1275.28684863 -757.76171875 1267.3828125 C-752.20907368 1264.10973338 -746.60861327 1260.92585677 -741 1257.75 C-732.94865687 1253.17191684 -725.06534699 1248.38728555 -717.25 1243.41943359 C-714.71807511 1241.82214504 -712.17259305 1240.24795658 -709.625 1238.67578125 C-657.2085709 1206.27074489 -606.46263511 1170.31772113 -559 1131 C-557.16760408 1129.498855 -555.33425253 1127.99887584 -553.5 1126.5 C-552.58734375 1125.75234375 -551.6746875 1125.0046875 -550.734375 1124.234375 C-548.95685227 1122.781885 -547.1757849 1121.33371833 -545.390625 1119.890625 C-538.74707107 1114.50502211 -532.27440364 1108.94242295 -525.828125 1103.32421875 C-523.37256691 1101.18584726 -520.90555446 1099.06267 -518.421875 1096.95703125 C-511.78841523 1091.33122076 -505.30024107 1085.59194229 -498.96850586 1079.62695312 C-496.06558063 1076.895407 -493.12750386 1074.22252763 -490.1171875 1071.609375 C-485.81200968 1067.86388061 -481.64823697 1063.98027936 -477.5 1060.0625 C-476.79230469 1059.39798828 -476.08460938 1058.73347656 -475.35546875 1058.04882812 C-471.8348955 1054.73099356 -468.36665756 1051.37712751 -464.96875 1047.93359375 C-462.49839688 1045.44430035 -459.98538415 1043.08280209 -457.31640625 1040.80859375 C-451.83465277 1036.08451365 -446.77721722 1030.9263845 -441.67260742 1025.80297852 C-439.941053 1024.066064 -438.20421641 1022.33456111 -436.46679688 1020.60351562 C-431.30811937 1015.44761046 -426.24567986 1010.28101398 -421.51000977 1004.72827148 C-418.49568439 1001.27824572 -415.1715931 998.13092173 -411.89453125 994.93359375 C-408.35321765 991.44372781 -405.04927348 987.81432396 -401.79882812 984.05273438 C-398.18434174 979.92805991 -394.37649232 975.98095684 -390.60546875 972 C-386.83736882 968.00565804 -383.16694898 963.94620278 -379.56738281 959.79931641 C-377.62031046 957.56412587 -375.62505531 955.37529997 -373.625 953.1875 C-369.75283181 948.89742495 -366.08424352 944.47581921 -362.44921875 939.984375 C-359.68188763 936.61237983 -356.84834757 933.30350975 -354 930 C-348.90117985 924.07770843 -343.92094386 918.07129437 -339 912 C-337.96919206 910.73922178 -336.93791001 909.47883109 -335.90625 908.21875 C-329.95191486 900.93566721 -324.07915325 893.60489594 -318.37890625 886.12109375 C-316.01953522 883.02562995 -313.63521596 879.95057115 -311.25 876.875 C-305.31047661 869.17640488 -299.57808025 861.32497829 -293.82763672 853.48486328 C-292.01839179 851.02500556 -290.20022761 848.57201984 -288.37890625 846.12109375 C-287.78110352 845.31494629 -287.18330078 844.50879883 -286.56738281 843.67822266 C-285.45813233 842.18286412 -284.3470421 840.68886701 -283.23339844 839.19677734 C-272.72473026 825.00329344 -263.04553956 810.18844037 -253.25 795.5 C-252.63305267 794.57491638 -252.01610535 793.64983276 -251.38046265 792.69671631 C-242.62676616 779.55859194 -233.97763672 766.38021643 -225.76464844 752.89501953 C-224.15247811 750.25015017 -222.53017399 747.6117308 -220.90467834 744.97503662 C-211.71738748 730.0618005 -202.92060663 714.97818908 -194.46044922 699.63720703 C-192.86120632 696.74937323 -191.23449871 693.87834106 -189.59936523 691.01074219 C-168.02379021 653.07186903 -148.36037538 613.84347965 -130.82568359 573.87921143 C-129.99134294 571.980297 -129.15252047 570.08341974 -128.3125 568.18701172 C-96.25500093 495.75315625 -70.16382063 420.58003705 -50 344 C-49.7585022 343.08385925 -49.51700439 342.16771851 -49.26818848 341.22381592 C-37.8876814 297.93603902 -28.26428813 254.17035667 -21 210 C-20.86978455 209.20843506 -20.73956909 208.41687012 -20.60540771 207.60131836 C-14.44961878 170.01342551 -9.73530741 132.28686967 -6.22070312 94.36352539 C-6.00806158 92.08633208 -5.79012401 89.80971432 -5.5703125 87.53320312 C-3.51128837 66.11460151 -2.39823293 44.71120546 -1.64599609 23.20727539 C-1.6092981 22.18366913 -1.5726001 21.16006287 -1.53479004 20.10543823 C-1.46681202 18.18533547 -1.40221121 16.26510887 -1.3416748 14.34475708 C-1.17107835 9.48891536 -0.79149869 4.79514248 0 0 Z " fill="#08090A" transform="translate(2101,635)"/>
<path d="M0 0 C0.33 0 0.66 0 1 0 C2.19388403 24.98265839 2.19388403 24.98265839 2 35 C1.67 35 1.34 35 1 35 C0.67 32.36 0.34 29.72 0 27 C-0.33 27 -0.66 27 -1 27 C-1.02932572 23.81251971 -1.04690739 20.62507472 -1.0625 17.4375 C-1.07087891 16.54224609 -1.07925781 15.64699219 -1.08789062 14.72460938 C-1.10629571 9.70002057 -0.86266398 4.95182709 0 0 Z " fill="#4E5051" transform="translate(2101,635)"/>
<path d="M0 0 C0.82242188 0.00451172 1.64484375 0.00902344 2.4921875 0.01367188 C4.49482396 0.02531511 6.49742227 0.04324444 8.5 0.0625 C8.5 0.3925 8.5 0.7225 8.5 1.0625 C11.47 1.5575 11.47 1.5575 14.5 2.0625 C14.5 2.3925 14.5 2.7225 14.5 3.0625 C3.80779968 3.25808903 -6.82799208 2.65304589 -17.5 2.0625 C-17.5 1.7325 -17.5 1.4025 -17.5 1.0625 C-11.61599345 0.20554033 -5.94090708 -0.06289234 0 0 Z " fill="#4A4C4C" transform="translate(660.5,2099.9375)"/>
</svg>
