<svg width="33" height="32" viewBox="0 0 33 32" fill="none" xmlns="http://www.w3.org/2000/svg">
<path fill-rule="evenodd" clip-rule="evenodd" d="M20.3133 24.6667C20.3133 24.9318 20.0984 25.1467 19.8333 25.1467H7.83333C7.56823 25.1467 7.35333 24.9318 7.35333 24.6667V12.6667C7.35333 12.4016 7.56823 12.1867 7.83333 12.1867C8.09843 12.1867 8.31333 12.4016 8.31333 12.6667V24.1867H19.8333C20.0984 24.1867 20.3133 24.4016 20.3133 24.6667Z" fill="#0A0A0A"/>
<path fill-rule="evenodd" clip-rule="evenodd" d="M7.49392 25.0061C7.30646 24.8187 7.30646 24.5148 7.49392 24.3273L24.4646 7.35665C24.652 7.1692 24.956 7.1692 25.1434 7.35665C25.3309 7.5441 25.3309 7.84802 25.1434 8.03547L8.17274 25.0061C7.98528 25.1936 7.68137 25.1936 7.49392 25.0061Z" fill="#0A0A0A"/>
</svg>
